<?xml version="1.0" encoding="UTF-8" standalone="no"?>
<!-- Created with Inkscape (http://www.inkscape.org/) -->

<svg
   version="1.1"
   id="svg2"
   xml:space="preserve"
   width="100"
   height="100"
   viewBox="0 0 99.999998 99.999995"
   xmlns="http://www.w3.org/2000/svg"
   xmlns:svg="http://www.w3.org/2000/svg"><defs
     id="defs6"><clipPath
       clipPathUnits="userSpaceOnUse"
       id="clipPath16"><path
         d="M 0,980 H 1400 V 0 H 0 Z"
         id="path14" /></clipPath></defs><g
     id="g8"
     transform="matrix(1.3333333,0,0,-1.3333333,-192.84239,1185.7373)"><g
       id="g18"
       transform="matrix(0.30398094,0,0,0.30398094,182.13186,840.12259)"
       style="fill:#f9f9f9"><path
         d="m 0,0 c -16.408,0 -30.44,10.341 -35.939,24.846 h -73.304 c 2.966,-24.259 13.86,-46.697 31.413,-64.251 20.789,-20.789 48.43,-32.238 77.83,-32.238 29.4,0 57.04,11.449 77.829,32.238 17.554,17.554 28.448,39.992 31.414,64.251 H 35.939 C 30.44,10.341 16.408,0 0,0"
         style="fill:#f9f9f9;fill-opacity:1;fill-rule:nonzero;stroke:none"
         id="path20" /></g><g
       id="g22"
       transform="matrix(0.30398094,0,0,0.30398094,189.77069,851.80297)"
       style="fill:#f9f9f9"><path
         d="m 0,0 c 0,13.856 -11.273,25.129 -25.129,25.129 -13.857,0 -25.13,-11.273 -25.13,-25.129 0,-13.856 11.273,-25.129 25.13,-25.129 C -11.273,-25.129 0,-13.856 0,0"
         style="fill:#f9f9f9;fill-opacity:1;fill-rule:nonzero;stroke:none"
         id="path24" /></g><g
       id="g30"
       transform="matrix(0.30398094,0,0,0.30398094,193.05657,855.93079)"><path
         d="M 0,0 C -5.499,14.504 -19.531,24.846 -35.939,24.846 -52.347,24.846 -66.379,14.504 -71.878,0 h -73.304 c 2.966,24.258 13.86,46.697 31.414,64.25 20.788,20.79 48.429,32.239 77.829,32.239 29.4,0 57.041,-11.449 77.83,-32.239 C 59.444,46.697 70.338,24.258 73.304,0 Z m -61.068,-13.579 c 0,13.856 11.273,25.129 25.129,25.129 13.856,0 25.129,-11.273 25.129,-25.129 0,-13.856 -11.273,-25.129 -25.129,-25.129 -13.856,0 -25.129,11.273 -25.129,25.129 m 102.959,-77.83 c -20.789,-20.789 -48.43,-32.238 -77.83,-32.238 -29.4,0 -57.041,11.449 -77.829,32.238 -17.554,17.554 -28.448,39.993 -31.414,64.251 h 73.304 c 5.499,-14.505 19.531,-24.846 35.939,-24.846 16.408,0 30.44,10.341 35.939,24.846 H 73.304 C 70.338,-51.416 59.444,-73.855 41.891,-91.409 m -77.83,201.193 c -32.951,0 -63.931,-12.832 -87.231,-36.132 -23.3,-23.3 -36.132,-54.28 -36.132,-87.231 0,-32.952 12.832,-63.931 36.132,-87.231 23.3,-23.3 54.28,-36.132 87.231,-36.132 32.952,0 63.931,12.832 87.231,36.132 23.3,23.3 36.132,54.279 36.132,87.231 0,32.951 -12.832,63.931 -36.132,87.231 -23.3,23.3 -54.279,36.132 -87.231,36.132"
         style="fill:#231f20;fill-opacity:1;fill-rule:nonzero;stroke:none"
         id="path32" /></g></g></svg>
